<?xml version="1.0" standalone="no"?>
<!DOCTYPE svg PUBLIC "-//W3C//DTD SVG 20010904//EN"
 "http://www.w3.org/TR/2001/REC-SVG-20010904/DTD/svg10.dtd">
<svg version="1.0" xmlns="http://www.w3.org/2000/svg"
 width="280.000000pt" height="280.000000pt" viewBox="0 0 280.000000 280.000000"
 preserveAspectRatio="xMidYMid meet">
<metadata>
Created by potrace 1.14, written by Peter Selinger 2001-2017
</metadata>
<g transform="translate(0.000000,280.000000) scale(0.100000,-0.100000)"
fill="#000000" stroke="none">
<path d="M1378 2755 c-2 -1 -44 -5 -94 -8 -443 -29 -868 -312 -1084 -721 -37
-72 -103 -244 -115 -304 -50 -242 -47 -474 11 -682 90 -330 313 -622 613 -803
137 -83 345 -158 479 -173 26 -3 55 -7 64 -10 24 -7 232 -6 303 1 158 17 380
90 520 172 215 126 402 319 517 533 229 429 210 959 -50 1365 -153 239 -378
426 -637 530 -125 50 -255 81 -385 91 -41 3 -89 7 -107 8 -18 2 -33 3 -35 1z"/>
</g>
</svg>
